<?xml version="1.0" encoding="UTF-8" standalone="no"?>
<!-- Created with Inkscape (http://www.inkscape.org/) -->

<svg
   width="128"
   height="128"
   viewBox="0 0 128 128"
   version="1.1"
   id="svg5"
   inkscape:version="1.2.2 (b0a8486, 2022-12-01)"
   sodipodi:docname="building_6.svg"
   inkscape:export-filename="../buildings/building_6.png"
   inkscape:export-xdpi="96"
   inkscape:export-ydpi="96"
   xmlns:inkscape="http://www.inkscape.org/namespaces/inkscape"
   xmlns:sodipodi="http://sodipodi.sourceforge.net/DTD/sodipodi-0.dtd"
   xmlns="http://www.w3.org/2000/svg"
   xmlns:svg="http://www.w3.org/2000/svg">
  <sodipodi:namedview
     id="namedview7"
     pagecolor="#505050"
     bordercolor="#ffffff"
     borderopacity="1"
     inkscape:showpageshadow="0"
     inkscape:pageopacity="0"
     inkscape:pagecheckerboard="1"
     inkscape:deskcolor="#505050"
     inkscape:document-units="px"
     showgrid="true"
     inkscape:zoom="3.5837332"
     inkscape:cx="50.505993"
     inkscape:cy="80.084088"
     inkscape:window-width="1920"
     inkscape:window-height="1008"
     inkscape:window-x="0"
     inkscape:window-y="0"
     inkscape:window-maximized="1"
     inkscape:current-layer="layer3">
    <inkscape:grid
       type="xygrid"
       id="grid9"
       spacingx="4"
       spacingy="2"
       originx="0"
       originy="0"
       empspacing="4" />
  </sodipodi:namedview>
  <defs
     id="defs2">
    <filter
       inkscape:label="Inset"
       inkscape:menu="Shadows and Glows"
       inkscape:menu-tooltip="Shadowy outer bevel"
       style="color-interpolation-filters:sRGB;"
       id="filter14935"
       x="-0.76499998"
       y="-0.67999998"
       width="2.53"
       height="2.36">
      <feMorphology
         result="result1"
         in="SourceAlpha"
         operator="dilate"
         radius="3.6"
         id="feMorphology14923" />
      <feGaussianBlur
         stdDeviation="3.6"
         in="result1"
         result="result0"
         id="feGaussianBlur14925" />
      <feDiffuseLighting
         surfaceScale="-5"
         id="feDiffuseLighting14929">
        <feDistantLight
           elevation="45"
           azimuth="225"
           id="feDistantLight14927" />
      </feDiffuseLighting>
      <feComposite
         in2="result0"
         operator="in"
         result="result91"
         id="feComposite14931" />
      <feComposite
         in="SourceGraphic"
         in2="result91"
         id="feComposite14933" />
    </filter>
  </defs>
  <g
     inkscape:label="Layer 1"
     inkscape:groupmode="layer"
     id="layer1" />
  <g
     inkscape:groupmode="layer"
     id="layer3"
     inkscape:label="Layer 2">
    <path
       style="fill:#b4b4b4;fill-opacity:1;stroke:none;stroke-width:4;stroke-dasharray:none;stroke-opacity:1"
       d="M 56,120 24,104 V 36 l 32,16 z"
       id="path10794"
       sodipodi:nodetypes="ccccc" />
    <path
       style="fill:#aeaeae;fill-opacity:1;stroke:none;stroke-width:4;stroke-dasharray:none;stroke-opacity:1"
       d="M 56,120 104,96 V 28 L 56,52 Z"
       id="path12308"
       sodipodi:nodetypes="ccccc" />
    <path
       style="fill:#b8b8b8;fill-opacity:1;stroke:none;stroke-width:4;stroke-dasharray:none;stroke-opacity:1"
       d="M 56,52 104,28 72,12 24,36 Z"
       id="path14773"
       sodipodi:nodetypes="ccccc" />
    <path
       style="fill:#a096b4;fill-opacity:1;stroke:#8c8c8c;stroke-width:1;stroke-linejoin:round;stroke-dasharray:none;stroke-opacity:1"
       d="M 28,95.999999 36,100 v 4 l -8,-4 z"
       id="path18951" />
    <path
       style="fill:#f0f03c;fill-opacity:1;stroke:none;stroke-width:1;stroke-linejoin:round;stroke-dasharray:none;stroke-opacity:1"
       d="m 24,40 32,16 48,-24 v 2 L 56,58 24,42 Z"
       id="path19978" />
    <path
       style="fill:#ffffff;fill-opacity:1;stroke:none;stroke-width:1;stroke-linejoin:round;stroke-dasharray:none;stroke-opacity:1"
       d="m 24,42 32,16 48,-24 v 2 L 56,60 24,44 Z"
       id="path22507" />
    <path
       style="fill:#9b59d0;fill-opacity:1;stroke:none;stroke-width:1;stroke-linejoin:round;stroke-dasharray:none;stroke-opacity:1"
       d="m 24,44 32,16 48,-24 v 2 L 56,62 24,46 Z"
       id="path22509" />
    <path
       style="fill:#000000;fill-opacity:1;stroke:none;stroke-width:1;stroke-linejoin:round;stroke-dasharray:none;stroke-opacity:1"
       d="m 24,46 32,16 48,-24 v 2 L 56,64 24,48 Z"
       id="path24017" />
    <path
       style="fill:#a096b4;fill-opacity:1;stroke:#8c8c8c;stroke-width:1;stroke-linejoin:round;stroke-dasharray:none;stroke-opacity:1"
       d="m 44,104 8,4 v 4 l -8,-4 z"
       id="path24067" />
    <path
       style="fill:#a096b4;fill-opacity:1;stroke:#8c8c8c;stroke-width:1;stroke-linejoin:round;stroke-dasharray:none;stroke-opacity:1"
       d="m 68,104 -8,4 v 4 l 8,-4 z"
       id="path24813" />
    <path
       style="fill:#a096b4;fill-opacity:1;stroke:#8c8c8c;stroke-width:1;stroke-linejoin:round;stroke-dasharray:none;stroke-opacity:1"
       d="m 84,96 -8,4 v 4 l 8,-4 z"
       id="path24815" />
    <path
       style="fill:#a096b4;fill-opacity:1;stroke:#8c8c8c;stroke-width:1;stroke-linejoin:round;stroke-dasharray:none;stroke-opacity:1"
       d="m 100,88 -8,4 v 4 l 8,-4 z"
       id="path24817" />
    <path
       style="fill:#f0f0f0;fill-opacity:1;stroke:none;stroke-width:1;stroke-linejoin:round;stroke-dasharray:none;stroke-opacity:1"
       d="m 72,34 8,4 v -8 l -8,-4 z"
       id="path25059" />
    <path
       style="fill:#9b59d0;fill-opacity:1;stroke:none;stroke-width:1;stroke-linejoin:round;stroke-dasharray:none;stroke-opacity:1"
       d="m 60,40 8,4 v -8 l -8,-4 z"
       id="path25038" />
    <path
       style="fill:#9650cd;fill-opacity:1;stroke:none;stroke-width:1;stroke-linejoin:round;stroke-dasharray:none;stroke-opacity:1"
       d="m 76,40 -8,4 v -8 l 8,-4 z"
       id="path25040" />
    <path
       style="fill:#9f60d2;fill-opacity:1;stroke:none;stroke-width:1;stroke-linejoin:round;stroke-dasharray:none;stroke-opacity:1"
       d="m 60,32 8,4 8,-4 -8,-4 z"
       id="path25042" />
    <path
       style="fill:#0e0e0e;fill-opacity:1;stroke:none;stroke-width:1;stroke-linejoin:round;stroke-dasharray:none;stroke-opacity:1"
       d="m 48,46 8,4 v -8 l -8,-4 z"
       id="path25032" />
    <path
       style="fill:#0c0c0c;fill-opacity:1;stroke:none;stroke-width:1;stroke-linejoin:round;stroke-dasharray:none;stroke-opacity:1"
       d="m 64,46 -8,4 v -8 l 8,-4 z"
       id="path25034" />
    <path
       style="fill:#101010;fill-opacity:1;stroke:none;stroke-width:1;stroke-linejoin:round;stroke-dasharray:none;stroke-opacity:1"
       d="m 48,38 8,4 8,-4 -8,-4 z"
       id="path25036" />
    <path
       style="fill:#f0f03c;fill-opacity:1;stroke:none;stroke-width:1;stroke-linejoin:round;stroke-dasharray:none;stroke-opacity:1"
       d="m 84,28 8,4 v -8 l -8,-4 z"
       id="path25050" />
    <path
       style="fill:#efef2f;fill-opacity:1;stroke:none;stroke-width:1;stroke-linejoin:round;stroke-dasharray:none;stroke-opacity:1"
       d="m 100,28 -8,4 v -8 l 8,-4 z"
       id="path25052" />
    <path
       style="fill:#f1f14b;fill-opacity:1;stroke:none;stroke-width:1;stroke-linejoin:round;stroke-dasharray:none;stroke-opacity:1"
       d="m 84,20 8,4 8,-4 -8,-4 z"
       id="path25054" />
    <path
       style="fill:#ebebeb;fill-opacity:1;stroke:none;stroke-width:1;stroke-linejoin:round;stroke-dasharray:none;stroke-opacity:1"
       d="m 88,34 -8,4 v -8 l 8,-4 z"
       id="path25061" />
    <path
       style="fill:#f5f5f5;fill-opacity:1;stroke:none;stroke-width:1;stroke-linejoin:round;stroke-dasharray:none;stroke-opacity:1"
       d="m 72,26 8,4 8,-4 -8,-4 z"
       id="path25063" />
    <path
       style="fill:#f0f0f0;fill-opacity:1;stroke:none;stroke-width:1;stroke-linejoin:round;stroke-dasharray:none;stroke-opacity:1"
       d="m 72,34 8,4 v -8 l -8,-4 z"
       id="path25122" />
    <path
       style="fill:#9b59d0;fill-opacity:1;stroke:none;stroke-width:1;stroke-linejoin:round;stroke-dasharray:none;stroke-opacity:1"
       d="m 60,40 8,4 v -8 l -8,-4 z"
       id="path25124" />
    <path
       style="fill:#9650cd;fill-opacity:1;stroke:none;stroke-width:1;stroke-linejoin:round;stroke-dasharray:none;stroke-opacity:1"
       d="m 76,40 -8,4 v -8 l 8,-4 z"
       id="path25126" />
    <path
       style="fill:#9f60d2;fill-opacity:1;stroke:none;stroke-width:1;stroke-linejoin:round;stroke-dasharray:none;stroke-opacity:1"
       d="m 60,32 8,4 8,-4 -8,-4 z"
       id="path25128" />
    <path
       style="fill:#0e0e0e;fill-opacity:1;stroke:none;stroke-width:1;stroke-linejoin:round;stroke-dasharray:none;stroke-opacity:1"
       d="m 48,46 8,4 v -8 l -8,-4 z"
       id="path25130" />
    <path
       style="fill:#0c0c0c;fill-opacity:1;stroke:none;stroke-width:1;stroke-linejoin:round;stroke-dasharray:none;stroke-opacity:1"
       d="m 64,46 -8,4 v -8 l 8,-4 z"
       id="path25132" />
    <path
       style="fill:#101010;fill-opacity:1;stroke:none;stroke-width:1;stroke-linejoin:round;stroke-dasharray:none;stroke-opacity:1"
       d="m 48,38 8,4 8,-4 -8,-4 z"
       id="path25134" />
    <path
       style="fill:#f0f03c;fill-opacity:1;stroke:none;stroke-width:1;stroke-linejoin:round;stroke-dasharray:none;stroke-opacity:1"
       d="m 84,28 8,4 v -8 l -8,-4 z"
       id="path25136" />
    <path
       style="fill:#efef2f;fill-opacity:1;stroke:none;stroke-width:1;stroke-linejoin:round;stroke-dasharray:none;stroke-opacity:1"
       d="m 100,28 -8,4 v -8 l 8,-4 z"
       id="path25138" />
    <path
       style="fill:#f1f14b;fill-opacity:1;stroke:none;stroke-width:1;stroke-linejoin:round;stroke-dasharray:none;stroke-opacity:1"
       d="m 84,20 8,4 8,-4 -8,-4 z"
       id="path25140" />
    <path
       style="fill:#ebebeb;fill-opacity:1;stroke:none;stroke-width:1;stroke-linejoin:round;stroke-dasharray:none;stroke-opacity:1"
       d="m 88,34 -8,4 v -8 l 8,-4 z"
       id="path25142" />
    <path
       style="fill:#f5f5f5;fill-opacity:1;stroke:none;stroke-width:1;stroke-linejoin:round;stroke-dasharray:none;stroke-opacity:1"
       d="m 72,26 8,4 8,-4 -8,-4 z"
       id="path25144" />
    <path
       style="fill:#f0f0f0;fill-opacity:1;stroke:none;stroke-width:1;stroke-linejoin:round;stroke-dasharray:none;stroke-opacity:1"
       d="m 52,24 8,4 v -8 l -8,-4 z"
       id="path25146" />
    <path
       style="fill:#9b59d0;fill-opacity:1;stroke:none;stroke-width:1;stroke-linejoin:round;stroke-dasharray:none;stroke-opacity:1"
       d="m 40,30 8,4 v -8 l -8,-4 z"
       id="path25148" />
    <path
       style="fill:#9650cd;fill-opacity:1;stroke:none;stroke-width:1;stroke-linejoin:round;stroke-dasharray:none;stroke-opacity:1"
       d="m 56,30 -8,4 v -8 l 8,-4 z"
       id="path25150" />
    <path
       style="fill:#9f60d2;fill-opacity:1;stroke:none;stroke-width:1;stroke-linejoin:round;stroke-dasharray:none;stroke-opacity:1"
       d="m 40,22 8,4 8,-4 -8,-4 z"
       id="path25152" />
    <path
       style="fill:#0e0e0e;fill-opacity:1;stroke:none;stroke-width:1;stroke-linejoin:round;stroke-dasharray:none;stroke-opacity:1"
       d="m 28,36 8,4 v -8 l -8,-4 z"
       id="path25154" />
    <path
       style="fill:#0c0c0c;fill-opacity:1;stroke:none;stroke-width:1;stroke-linejoin:round;stroke-dasharray:none;stroke-opacity:1"
       d="m 44,36 -8,4 v -8 l 8,-4 z"
       id="path25156" />
    <path
       style="fill:#101010;fill-opacity:1;stroke:none;stroke-width:1;stroke-linejoin:round;stroke-dasharray:none;stroke-opacity:1"
       d="m 28,28 8,4 8,-4 -8,-4 z"
       id="path25158" />
    <path
       style="fill:#f0f03c;fill-opacity:1;stroke:none;stroke-width:1;stroke-linejoin:round;stroke-dasharray:none;stroke-opacity:1"
       d="m 64,18 8,4 v -8 l -8,-4 z"
       id="path25160" />
    <path
       style="fill:#efef2f;fill-opacity:1;stroke:none;stroke-width:1;stroke-linejoin:round;stroke-dasharray:none;stroke-opacity:1"
       d="m 80,18 -8,4 v -8 l 8,-4 z"
       id="path25162" />
    <path
       style="fill:#f1f14b;fill-opacity:1;stroke:none;stroke-width:1;stroke-linejoin:round;stroke-dasharray:none;stroke-opacity:1"
       d="m 64,10 8,4 8,-4 -8,-4 z"
       id="path25164" />
    <path
       style="fill:#ebebeb;fill-opacity:1;stroke:none;stroke-width:1;stroke-linejoin:round;stroke-dasharray:none;stroke-opacity:1"
       d="m 68,24 -8,4 v -8 l 8,-4 z"
       id="path25166" />
    <path
       style="fill:#f5f5f5;fill-opacity:1;stroke:none;stroke-width:1;stroke-linejoin:round;stroke-dasharray:none;stroke-opacity:1"
       d="m 52,16 8,4 8,-4 -8,-4 z"
       id="path25168" />
    <path
       style="fill:#a096b4;fill-opacity:1;stroke:#8c8c8c;stroke-width:1;stroke-linejoin:round;stroke-dasharray:none;stroke-opacity:1"
       d="m 28,86 8,4.000001 v 4 l -8,-4 z"
       id="path571" />
    <path
       style="fill:#a096b4;fill-opacity:1;stroke:#8c8c8c;stroke-width:1;stroke-linejoin:round;stroke-dasharray:none;stroke-opacity:1"
       d="m 44,94.000001 8,4 V 102 l -8,-3.999999 z"
       id="path573" />
    <path
       style="fill:#a096b4;fill-opacity:1;stroke:#8c8c8c;stroke-width:1;stroke-linejoin:round;stroke-dasharray:none;stroke-opacity:1"
       d="m 68,94.000001 -8,4 V 102 l 8,-3.999999 z"
       id="path575" />
    <path
       style="fill:#a096b4;fill-opacity:1;stroke:#8c8c8c;stroke-width:1;stroke-linejoin:round;stroke-dasharray:none;stroke-opacity:1"
       d="m 84,86.000001 -8,4 v 4 l 8,-4 z"
       id="path577" />
    <path
       style="fill:#a096b4;fill-opacity:1;stroke:#8c8c8c;stroke-width:1;stroke-linejoin:round;stroke-dasharray:none;stroke-opacity:1"
       d="m 100,78.000001 -8,4 v 4 l 8,-4 z"
       id="path579" />
    <path
       style="fill:#a096b4;fill-opacity:1;stroke:#8c8c8c;stroke-width:1;stroke-linejoin:round;stroke-dasharray:none;stroke-opacity:1"
       d="m 28,76 8,4.000001 v 4 l -8,-4 z"
       id="path581" />
    <path
       style="fill:#a096b4;fill-opacity:1;stroke:#8c8c8c;stroke-width:1;stroke-linejoin:round;stroke-dasharray:none;stroke-opacity:1"
       d="m 44,84.000001 8,4 V 92 l -8,-3.999999 z"
       id="path583" />
    <path
       style="fill:#a096b4;fill-opacity:1;stroke:#8c8c8c;stroke-width:1;stroke-linejoin:round;stroke-dasharray:none;stroke-opacity:1"
       d="m 68,84.000001 -8,4 V 92 l 8,-3.999999 z"
       id="path585" />
    <path
       style="fill:#a096b4;fill-opacity:1;stroke:#8c8c8c;stroke-width:1;stroke-linejoin:round;stroke-dasharray:none;stroke-opacity:1"
       d="m 84,76.000001 -8,4 v 4 l 8,-4 z"
       id="path587" />
    <path
       style="fill:#a096b4;fill-opacity:1;stroke:#8c8c8c;stroke-width:1;stroke-linejoin:round;stroke-dasharray:none;stroke-opacity:1"
       d="m 100,68.000001 -8,4 v 4 l 8,-4 z"
       id="path589" />
    <path
       style="fill:#a096b4;fill-opacity:1;stroke:#8c8c8c;stroke-width:1;stroke-linejoin:round;stroke-dasharray:none;stroke-opacity:1"
       d="m 28,66 8,4.000001 v 4 l -8,-4 z"
       id="path591" />
    <path
       style="fill:#a096b4;fill-opacity:1;stroke:#8c8c8c;stroke-width:1;stroke-linejoin:round;stroke-dasharray:none;stroke-opacity:1"
       d="m 44,74.000001 8,4 V 82 l -8,-3.999999 z"
       id="path593" />
    <path
       style="fill:#a096b4;fill-opacity:1;stroke:#8c8c8c;stroke-width:1;stroke-linejoin:round;stroke-dasharray:none;stroke-opacity:1"
       d="m 68,74.000001 -8,4 V 82 l 8,-3.999999 z"
       id="path595" />
    <path
       style="fill:#a096b4;fill-opacity:1;stroke:#8c8c8c;stroke-width:1;stroke-linejoin:round;stroke-dasharray:none;stroke-opacity:1"
       d="m 84,66.000001 -8,4 v 4 l 8,-4 z"
       id="path597" />
    <path
       style="fill:#a096b4;fill-opacity:1;stroke:#8c8c8c;stroke-width:1;stroke-linejoin:round;stroke-dasharray:none;stroke-opacity:1"
       d="m 100,58.000001 -8,4 v 4 l 8,-4 z"
       id="path599" />
    <path
       style="fill:#a096b4;fill-opacity:1;stroke:#8c8c8c;stroke-width:1;stroke-linejoin:round;stroke-dasharray:none;stroke-opacity:1"
       d="m 28,56 8,4.000001 v 4 l -8,-4 z"
       id="path601" />
    <path
       style="fill:#a096b4;fill-opacity:1;stroke:#8c8c8c;stroke-width:1;stroke-linejoin:round;stroke-dasharray:none;stroke-opacity:1"
       d="m 44,64.000001 8,4 V 72 l -8,-3.999999 z"
       id="path603" />
    <path
       style="fill:#a096b4;fill-opacity:1;stroke:#8c8c8c;stroke-width:1;stroke-linejoin:round;stroke-dasharray:none;stroke-opacity:1"
       d="m 68,64.000001 -8,4 V 72 l 8,-3.999999 z"
       id="path605" />
    <path
       style="fill:#a096b4;fill-opacity:1;stroke:#8c8c8c;stroke-width:1;stroke-linejoin:round;stroke-dasharray:none;stroke-opacity:1"
       d="m 84,56.000001 -8,4 v 4 l 8,-4 z"
       id="path607" />
    <path
       style="fill:#a096b4;fill-opacity:1;stroke:#8c8c8c;stroke-width:1;stroke-linejoin:round;stroke-dasharray:none;stroke-opacity:1"
       d="m 100,48.000001 -8,4 v 4 l 8,-4 z"
       id="path609" />
  </g>
</svg>
