<?xml version="1.0" encoding="UTF-8" standalone="no"?>
<!-- Created with Inkscape (http://www.inkscape.org/) -->

<svg
   width="128"
   height="128"
   viewBox="0 0 128 128"
   version="1.1"
   id="svg5"
   inkscape:version="1.2.2 (b0a8486, 2022-12-01)"
   sodipodi:docname="building_4.svg"
   inkscape:export-filename="../buildings/building_4.png"
   inkscape:export-xdpi="96"
   inkscape:export-ydpi="96"
   xmlns:inkscape="http://www.inkscape.org/namespaces/inkscape"
   xmlns:sodipodi="http://sodipodi.sourceforge.net/DTD/sodipodi-0.dtd"
   xmlns="http://www.w3.org/2000/svg"
   xmlns:svg="http://www.w3.org/2000/svg">
  <sodipodi:namedview
     id="namedview7"
     pagecolor="#505050"
     bordercolor="#ffffff"
     borderopacity="1"
     inkscape:showpageshadow="0"
     inkscape:pageopacity="0"
     inkscape:pagecheckerboard="1"
     inkscape:deskcolor="#505050"
     inkscape:document-units="px"
     showgrid="true"
     inkscape:zoom="3.5837331"
     inkscape:cx="41.576757"
     inkscape:cy="73.108122"
     inkscape:window-width="1920"
     inkscape:window-height="1008"
     inkscape:window-x="0"
     inkscape:window-y="0"
     inkscape:window-maximized="1"
     inkscape:current-layer="layer3">
    <inkscape:grid
       type="xygrid"
       id="grid9"
       spacingx="4"
       spacingy="2"
       originx="0"
       originy="0"
       empspacing="4" />
  </sodipodi:namedview>
  <defs
     id="defs2">
    <filter
       inkscape:label="Inset"
       inkscape:menu="Shadows and Glows"
       inkscape:menu-tooltip="Shadowy outer bevel"
       style="color-interpolation-filters:sRGB;"
       id="filter14935"
       x="-0.76499998"
       y="-0.67999998"
       width="2.53"
       height="2.36">
      <feMorphology
         result="result1"
         in="SourceAlpha"
         operator="dilate"
         radius="3.6"
         id="feMorphology14923" />
      <feGaussianBlur
         stdDeviation="3.6"
         in="result1"
         result="result0"
         id="feGaussianBlur14925" />
      <feDiffuseLighting
         surfaceScale="-5"
         id="feDiffuseLighting14929">
        <feDistantLight
           elevation="45"
           azimuth="225"
           id="feDistantLight14927" />
      </feDiffuseLighting>
      <feComposite
         in2="result0"
         operator="in"
         result="result91"
         id="feComposite14931" />
      <feComposite
         in="SourceGraphic"
         in2="result91"
         id="feComposite14933" />
    </filter>
  </defs>
  <g
     inkscape:label="Layer 1"
     inkscape:groupmode="layer"
     id="layer1" />
  <g
     inkscape:groupmode="layer"
     id="layer3"
     inkscape:label="Layer 2">
    <path
       style="fill:#333ebd;fill-opacity:1;stroke:none;stroke-width:3.2;stroke-dasharray:none;stroke-opacity:1"
       d="M 25.6,83.2 V 96 c 0,19.2 76.8,19.2 76.8,0 V 83.2 c 0,19.2 -76.8,19.2 -76.8,0 z"
       id="path8998"
       sodipodi:nodetypes="ccccc" />
    <path
       style="fill:#2c2c2c;fill-opacity:1;stroke:none;stroke-width:3.2;stroke-dasharray:none;stroke-opacity:1"
       d="m 25.6,70.4 v 12.8 c 0,19.2 76.8,19.2 76.8,0 V 70.4 c 0,19.2 -76.8,19.2 -76.8,0 z"
       id="path9726"
       sodipodi:nodetypes="ccccc" />
    <path
       style="fill:#be18d6;fill-opacity:1;stroke:none;stroke-width:3.2;stroke-dasharray:none;stroke-opacity:1"
       d="m 25.6,57.6 v 12.8 c 0,19.2 76.8,19.2 76.8,0 V 57.6 c 0,19.2 -76.8,19.2 -76.8,0 z"
       id="path10454"
       sodipodi:nodetypes="ccccc" />
    <path
       style="fill:#f5f5f5;fill-opacity:1;stroke:none;stroke-width:3.2;stroke-dasharray:none;stroke-opacity:1"
       d="m 25.6,44.8 v 12.8 c 0,19.2 76.8,19.2 76.8,0 V 44.8 c 0,19.2 -76.8,19.2 -76.8,0 z"
       id="path10458"
       sodipodi:nodetypes="ccccc" />
    <path
       style="fill:#ff74a2;fill-opacity:1;stroke:none;stroke-width:3.2;stroke-dasharray:none;stroke-opacity:1"
       d="m 25.6,32 v 12.8 c 0,19.2 76.8,19.2 76.8,0 V 32 c 0,19.2 -76.8,19.2 -76.8,0 z"
       id="path10458-6"
       sodipodi:nodetypes="ccccc" />
    <path
       style="fill:none;fill-opacity:1;stroke:#505050;stroke-width:3.2;stroke-dasharray:none;stroke-opacity:1"
       d="m 25.6,32 v 64 c 0,19.2 76.8,19.2 76.8,0 V 32 c 0,19.2 -76.8,19.2 -76.8,0 z"
       id="path10568"
       sodipodi:nodetypes="ccccc" />
    <path
       style="fill:none;fill-opacity:1;stroke:#505050;stroke-width:3.2;stroke-dasharray:none;stroke-opacity:1"
       d="m 25.6,32 c 0,-19.2 76.8,-19.2 76.8,0"
       id="path10570"
       sodipodi:nodetypes="cc" />
    <path
       style="fill:#ff74a2;fill-opacity:1;stroke:#505050;stroke-width:3.2;stroke-dasharray:none;stroke-opacity:1"
       d="m 25.6,32 c 0,19.2 76.8,19.2 76.8,0 0,-19.2 -76.8,-19.2 -76.8,0 z"
       id="path10624"
       sodipodi:nodetypes="ccc" />
  </g>
</svg>
