<?xml version="1.0" encoding="UTF-8" standalone="no"?>
<!-- Created with Inkscape (http://www.inkscape.org/) -->

<svg
   width="128"
   height="192"
   viewBox="0 0 128 192"
   version="1.1"
   id="svg5"
   inkscape:version="1.2.2 (b0a8486, 2022-12-01)"
   sodipodi:docname="building_9.svg"
   inkscape:export-filename="../buildings/building_9.png"
   inkscape:export-xdpi="96"
   inkscape:export-ydpi="96"
   xmlns:inkscape="http://www.inkscape.org/namespaces/inkscape"
   xmlns:sodipodi="http://sodipodi.sourceforge.net/DTD/sodipodi-0.dtd"
   xmlns="http://www.w3.org/2000/svg"
   xmlns:svg="http://www.w3.org/2000/svg">
  <sodipodi:namedview
     id="namedview7"
     pagecolor="#505050"
     bordercolor="#ffffff"
     borderopacity="1"
     inkscape:showpageshadow="0"
     inkscape:pageopacity="0"
     inkscape:pagecheckerboard="1"
     inkscape:deskcolor="#505050"
     inkscape:document-units="px"
     showgrid="true"
     inkscape:zoom="2.534082"
     inkscape:cx="-15.390189"
     inkscape:cy="125.48923"
     inkscape:window-width="1920"
     inkscape:window-height="1008"
     inkscape:window-x="0"
     inkscape:window-y="0"
     inkscape:window-maximized="1"
     inkscape:current-layer="layer1">
    <inkscape:grid
       type="xygrid"
       id="grid9"
       spacingx="4"
       spacingy="2"
       originx="0"
       originy="0"
       empspacing="4" />
  </sodipodi:namedview>
  <defs
     id="defs2">
    <filter
       inkscape:label="Inset"
       inkscape:menu="Shadows and Glows"
       inkscape:menu-tooltip="Shadowy outer bevel"
       style="color-interpolation-filters:sRGB"
       id="filter14935"
       x="-0.76499999"
       y="-0.68000001"
       width="2.53"
       height="2.3599999">
      <feMorphology
         result="result1"
         in="SourceAlpha"
         operator="dilate"
         radius="3.6"
         id="feMorphology14923" />
      <feGaussianBlur
         stdDeviation="3.6"
         in="result1"
         result="result0"
         id="feGaussianBlur14925" />
      <feDiffuseLighting
         surfaceScale="-5"
         id="feDiffuseLighting14929">
        <feDistantLight
           elevation="45"
           azimuth="225"
           id="feDistantLight14927" />
      </feDiffuseLighting>
      <feComposite
         in2="result0"
         operator="in"
         result="result91"
         id="feComposite14931" />
      <feComposite
         in="SourceGraphic"
         in2="result91"
         id="feComposite14933" />
    </filter>
  </defs>
  <g
     inkscape:label="Layer 1"
     inkscape:groupmode="layer"
     id="layer1">
    <path
       style="fill:#c6cfe5;fill-opacity:1;stroke:none;stroke-linejoin:round"
       d="m 60,182 -8,-4 V 62 l 8,4 z"
       id="path420"
       sodipodi:nodetypes="ccccc" />
    <path
       style="fill:#e5cae5;fill-opacity:1;stroke:none;stroke-linejoin:round"
       d="m 52,178 -8,-4 V 58 l 8,4 z"
       id="path2754"
       sodipodi:nodetypes="ccccc" />
    <path
       style="fill:#e5e5e5;fill-opacity:1;stroke:none;stroke-linejoin:round"
       d="m 44,174 -8,-4 V 54 l 8,4 z"
       id="path2756"
       sodipodi:nodetypes="ccccc" />
    <path
       style="fill:#e5cae5;fill-opacity:1;stroke:none;stroke-linejoin:round"
       d="m 36,170 -8,-4 V 50 l 8,4 z"
       id="path2758"
       sodipodi:nodetypes="ccccc" />
    <path
       style="fill:#c6cfe5;fill-opacity:1;stroke:none;stroke-linejoin:round"
       d="m 28,166 -8,-4 V 46 l 8,4 z"
       id="path2760"
       sodipodi:nodetypes="ccccc" />
    <path
       style="fill:#bec6db;fill-opacity:1;stroke:none;stroke-linejoin:round"
       d="m 68,182 8,-4 V 62 l -8,4 z"
       id="path3534"
       sodipodi:nodetypes="ccccc" />
    <path
       style="fill:#dbc1db;fill-opacity:1;stroke:none;stroke-linejoin:round"
       d="m 76,178 8,-4 V 58 l -8,4 z"
       id="path3536"
       sodipodi:nodetypes="ccccc" />
    <path
       style="fill:#dbdbdb;fill-opacity:1;stroke:none;stroke-linejoin:round"
       d="m 84,174 8,-4 V 54 l -8,4 z"
       id="path3538"
       sodipodi:nodetypes="ccccc" />
    <path
       style="fill:#dbc1db;fill-opacity:1;stroke:none;stroke-linejoin:round"
       d="m 92,170 8,-4 V 50 l -8,4 z"
       id="path3540"
       sodipodi:nodetypes="ccccc" />
    <path
       style="fill:#bec6db;fill-opacity:1;stroke:none;stroke-linejoin:round"
       d="m 100,166 8,-4 V 46 l -8,4 z"
       id="path3542"
       sodipodi:nodetypes="ccccc" />
    <path
       style="fill:#b4b4b4;fill-opacity:1;stroke:none;stroke-linejoin:round"
       d="m 60,182 4,2 V 68 l -4,-2 z"
       id="path3669"
       sodipodi:nodetypes="ccccc" />
    <path
       style="fill:#b0b0b0;fill-opacity:1;stroke:none;stroke-linejoin:round"
       d="m 64,184 4,-2 V 66 l -4,2 z"
       id="path4583"
       sodipodi:nodetypes="ccccc" />
    <path
       style="fill:#b0b0b0;fill-opacity:1;stroke:none;stroke-linejoin:round"
       d="m 108,162 4,-2 V 44 l -4,2 z"
       id="path5258"
       sodipodi:nodetypes="ccccc" />
    <path
       style="fill:#b4b4b4;fill-opacity:1;stroke:none;stroke-linejoin:round"
       d="m 20,162 -4,-2 V 44 l 4,2 z"
       id="path5260"
       sodipodi:nodetypes="ccccc" />
    <path
       style="fill:#bababa;fill-opacity:1;stroke:none;stroke-linejoin:round"
       d="M 64,4 16,28 64,52 112,28 Z"
       id="path5943" />
    <path
       style="fill:#dce6ff;fill-opacity:1;stroke:none;stroke-linejoin:round"
       d="m 16,30 48,24 48,-24 v 2 L 64,56 16,32 Z"
       id="path7589" />
    <path
       style="fill:#ffe1ff;fill-opacity:1;stroke:none;stroke-linejoin:round"
       d="m 16,32 48,24 48,-24 v 2 L 64,58 16,34 Z"
       id="path8317" />
    <path
       style="fill:#ffffff;fill-opacity:1;stroke:none;stroke-linejoin:round"
       d="m 16,34 48,24 48,-24 v 2 L 64,60 16,36 Z"
       id="path8319" />
    <path
       style="fill:#ffe1ff;fill-opacity:1;stroke:none;stroke-linejoin:round"
       d="m 16,36 48,24 48,-24 v 2 L 64,62 16,38 Z"
       id="path8321" />
    <path
       style="fill:#dce6ff;fill-opacity:1;stroke:none;stroke-linejoin:round"
       d="m 16,38 48,24 48,-24 v 2 L 64,64 16,40 Z"
       id="path8323" />
    <path
       style="fill:#b4b4b4;fill-opacity:1;stroke:none;stroke-linejoin:round"
       d="m 16,44 v -4 l 48,24 v 4 z"
       id="path8325" />
    <path
       style="fill:#b4b4b4;fill-opacity:1;stroke:none;stroke-linejoin:round"
       d="M 64,54 V 52 L 16,28 v 2 z"
       id="path8435" />
    <path
       style="fill:#b0b0b0;fill-opacity:1;stroke:none;stroke-linejoin:round"
       d="m 64,64 48,-24 v 4 L 64,68 Z"
       id="path8437" />
    <path
       style="fill:#b0b0b0;fill-opacity:1;stroke:none;stroke-linejoin:round"
       d="m 64,52 48,-24 v 2 L 64,54 Z"
       id="path8439" />
  </g>
  <g
     inkscape:groupmode="layer"
     id="layer3"
     inkscape:label="Layer 2" />
</svg>
